<?xml version="1.0" encoding="UTF-8"?>
<svg version="1.1" xmlns="http://www.w3.org/2000/svg" width="1024" height="1024">
<path d="M0 0 C3.30843947 0.30633699 5.90601013 1.14673633 8.97265625 2.3828125 C15.43063622 4.88199824 22.14864501 7.2322616 29.0625 7.9375 C32.375 8.3125 32.375 8.3125 34.375 10.3125 C36.69775177 10.71297444 39.03239357 11.0522104 41.375 11.3125 C41.375 11.9725 41.375 12.6325 41.375 13.3125 C42.36282471 13.43077148 43.35064941 13.54904297 44.3684082 13.67089844 C48.51416929 14.26677573 52.47458432 15.37774463 56.48046875 16.578125 C57.26074936 16.80765366 58.04102997 17.03718231 58.84495544 17.27366638 C61.41884851 18.03202741 63.99064403 18.79726177 66.5625 19.5625 C68.38381989 20.10046313 70.2052744 20.63797071 72.02685547 21.17504883 C76.83633206 22.59430672 81.64409413 24.01928647 86.45147705 25.44561768 C91.22586682 26.86131859 96.00161793 28.27240772 100.77734375 29.68359375 C102.17517342 30.09680122 102.17517342 30.09680122 103.60124207 30.51835632 C108.24995036 31.89244063 112.89898472 33.26540801 117.54858398 34.63647461 C119.36312677 35.17168418 121.17766137 35.70692148 122.9921875 36.2421875 C123.87264236 36.50183792 124.75309723 36.76148834 125.66023254 37.02900696 C130.6129985 38.49128012 135.56165408 39.96635763 140.50631714 41.45579529 C143.38074087 42.320125 146.25756404 43.17625603 149.13494873 44.03067017 C151.05531955 44.6041899 152.97231587 45.18897171 154.88916016 45.77416992 C160.92806915 47.56069112 166.07164942 48.77050207 172.375 48.3125 C172.045 48.9725 171.715 49.6325 171.375 50.3125 C174.68157504 51.33283009 177.99601736 52.32489551 181.3125 53.3125 C182.23869141 53.59867188 183.16488281 53.88484375 184.11914062 54.1796875 C190.0917653 55.94004003 195.15007767 56.61895771 201.375 56.3125 C201.045 56.9725 200.715 57.6325 200.375 58.3125 C203.64379616 59.31924459 206.9153471 60.31672489 210.1875 61.3125 C211.5806543 61.74175781 211.5806543 61.74175781 213.00195312 62.1796875 C213.89462891 62.45039063 214.78730469 62.72109375 215.70703125 63 C216.52921143 63.25136719 217.3513916 63.50273437 218.19848633 63.76171875 C220.48553367 64.43516178 220.48553367 64.43516178 223.375 64.3125 C223.375 64.9725 223.375 65.6325 223.375 66.3125 C226.015 66.3125 228.655 66.3125 231.375 66.3125 C231.375 66.9725 231.375 67.6325 231.375 68.3125 C231.90907471 68.40394287 232.44314941 68.49538574 232.9934082 68.58959961 C242.07050535 70.26624895 250.86981917 72.93484058 259.72436523 75.50170898 C261.82948247 76.11044928 263.9361474 76.71359499 266.04296875 77.31640625 C267.28328857 77.67549072 268.5236084 78.0345752 269.80151367 78.40454102 C273.32320269 79.29933923 276.77762431 79.82586196 280.375 80.3125 C280.31397924 103.77729258 280.23614776 127.24197868 280.13928509 150.70665169 C280.09466707 161.60618232 280.05517834 172.50568273 280.02856445 183.40527344 C280.0053045 192.92558812 279.97160706 202.44580437 279.92629844 211.96604049 C279.90273549 216.98854488 279.88376923 222.01095408 279.87738609 227.03351212 C279.75988748 308.78543398 268.32790103 392.12485502 229.46191406 465.24462891 C228.17384423 467.69520201 226.92731139 470.16531368 225.6796875 472.63671875 C216.30270887 491.09030142 205.81122861 508.75050835 193.375 525.3125 C192.87500488 525.9823291 192.37500977 526.6521582 191.85986328 527.34228516 C182.62019905 539.68899368 172.92581411 551.51240293 162.546875 562.921875 C161.08855902 564.52707172 159.6407309 566.1418543 158.203125 567.765625 C150.77837877 576.13821117 143.0367697 584.19040411 134.51171875 591.453125 C132.38059522 593.30763103 130.3172485 595.22515564 128.25585938 597.15649414 C121.82412475 603.16174052 115.07925009 608.63967685 108.09667969 613.98925781 C106.45484139 615.2511358 104.82359864 616.52539228 103.1953125 617.8046875 C75.64932506 639.30567021 45.97493736 657.27803632 14.82568359 673.046875 C13.25832992 673.85631527 11.70672312 674.69751304 10.17822266 675.578125 C6.92538651 677.40252482 4.88027992 678.29985295 1.09765625 678.39453125 C-4.29002462 676.82854216 -9.16500746 674.47997633 -14.1875 672 C-15.83709717 671.1946582 -15.83709717 671.1946582 -17.52001953 670.37304688 C-39.07432657 659.75540576 -59.73130385 647.88580526 -79.25390625 633.859375 C-81.43233254 632.13036865 -81.43233254 632.13036865 -83.625 632.3125 C-84.72320281 631.17887129 -85.82035262 630.04421404 -86.9140625 628.90625 C-88.96446591 626.99628518 -91.15083215 625.43308142 -93.4375 623.8125 C-101.11376912 618.32649879 -108.35627121 612.32258236 -115.625 606.3125 C-116.48810791 605.6023877 -116.48810791 605.6023877 -117.36865234 604.87792969 C-133.47143268 591.60330483 -149.11710133 577.24734974 -162.625 561.3125 C-164.01368551 559.68138742 -165.4097107 558.05649903 -166.8125 556.4375 C-167.44542969 555.69757812 -168.07835937 554.95765625 -168.73046875 554.1953125 C-170.60851977 552.32887829 -172.20125062 551.33359176 -174.625 550.3125 C-174.955 550.9725 -175.285 551.6325 -175.625 552.3125 C-175.625 551.3225 -175.625 550.3325 -175.625 549.3125 C-174.965 548.9825 -174.305 548.6525 -173.625 548.3125 C-174.62080078 547.11753906 -174.62080078 547.11753906 -175.63671875 545.8984375 C-180.94921875 539.5234375 -180.94921875 539.5234375 -182.29052734 537.90917969 C-183.58524628 536.36006483 -184.89591206 534.82432158 -186.20703125 533.2890625 C-188.56024612 530.39221318 -190.57478583 527.42935566 -192.625 524.3125 C-193.30965332 523.2802832 -193.99430664 522.24806641 -194.69970703 521.18457031 C-195.42013184 520.09756836 -196.14055664 519.01056641 -196.8828125 517.890625 C-198.09062757 516.07154092 -199.29887852 514.25274723 -200.50732422 512.43408203 C-201.34017062 511.17974008 -202.17219366 509.92485106 -203.00341797 508.66943359 C-204.21105153 506.84588319 -205.42163236 505.0243211 -206.6328125 503.203125 C-207.35098145 502.12063477 -208.06915039 501.03814453 -208.80908203 499.92285156 C-210.51945471 497.30027285 -210.51945471 497.30027285 -212.625 495.3125 C-213.285 494.6525 -213.945 493.9925 -214.625 493.3125 C-214.625 492.3225 -214.625 491.3325 -214.625 490.3125 C-215.90307577 487.86581328 -217.22586368 485.50075838 -218.625 483.125 C-228.40317889 466.12307579 -236.73402699 448.25835686 -244.625 430.3125 C-245.285 430.3125 -245.945 430.3125 -246.625 430.3125 C-246.66625 429.1575 -246.7075 428.0025 -246.75 426.8125 C-247.33731963 421.14712452 -249.41396777 416.13395239 -251.54150391 410.8984375 C-252.93428082 407.42282219 -253.625 405.11690168 -253.625 401.3125 C-254.285 400.9825 -254.945 400.6525 -255.625 400.3125 C-256.01945835 398.65923308 -256.3377141 396.98771811 -256.625 395.3125 C-257.23986138 392.97117625 -257.87202406 390.63436845 -258.515625 388.30078125 C-270.29037926 345.20962494 -276.3566356 301.94084945 -277.28393555 257.27661133 C-277.30009918 256.55101517 -277.31626282 255.82541901 -277.33291626 255.07783508 C-277.37599857 253.10209513 -277.41389501 251.12624401 -277.45141602 249.15039062 C-277.56923647 245.30627706 -277.56923647 245.30627706 -278.13449097 241.49708557 C-278.88517418 234.85242359 -278.71026864 228.19749329 -278.64672852 221.52124023 C-278.63656812 220.04210206 -278.62687641 218.5629606 -278.61761475 217.08381653 C-278.59130984 213.0926956 -278.55849581 209.10165222 -278.52446485 205.1105907 C-278.48994602 200.93061166 -278.46148041 196.75059138 -278.43235779 192.5705719 C-278.37637362 184.66599184 -278.31498837 176.76146344 -278.25163645 168.85693938 C-278.17974048 159.8533046 -278.11390553 150.84962865 -278.04856598 141.84594429 C-277.91409551 123.33474255 -277.77205809 104.8236058 -277.625 86.3125 C-278.285 86.3125 -278.945 86.3125 -279.625 86.3125 C-279.13 85.3225 -279.13 85.3225 -278.625 84.3125 C-278.439375 83.631875 -278.25375 82.95125 -278.0625 82.25 C-277.3509375 81.2909375 -277.3509375 81.2909375 -276.625 80.3125 C-274.73706311 80.06358765 -272.84764056 79.82261843 -270.95336914 79.62768555 C-266.90569403 79.07976182 -263.0400386 77.88816676 -259.125 76.75 C-258.30257812 76.51603516 -257.48015625 76.28207031 -256.6328125 76.04101562 C-254.62870942 75.47007928 -252.62663409 74.89203295 -250.625 74.3125 C-251.12 73.3225 -251.12 73.3225 -251.625 72.3125 C-250.48772461 72.36172607 -249.35044922 72.41095215 -248.17871094 72.46166992 C-243.40309224 72.45401207 -239.29925349 71.33605709 -234.765625 69.92578125 C-233.92125885 69.67295883 -233.0768927 69.42013641 -232.2069397 69.15965271 C-229.42650661 68.32475252 -226.65092542 67.47475499 -223.875 66.625 C-221.89634886 66.02845108 -219.91733766 65.43309524 -217.93798828 64.83886719 C-213.83841466 63.60705358 -209.74042578 62.37016583 -205.64355469 61.12939453 C-197.48727736 58.66257746 -189.31511702 56.25010213 -181.14157104 53.84124756 C-178.45873181 53.05033394 -175.77631347 52.25800695 -173.09399414 51.46533203 C-139.53952415 41.55181821 -105.95866537 31.72734008 -72.36352539 21.9526062 C-70.05127878 21.27977868 -67.73910343 20.60670622 -65.42700195 19.93338013 C-53.89495054 16.57510109 -42.35964574 13.22988868 -30.80859375 9.9375 C-28.14351539 9.17547055 -25.47854634 8.41305995 -22.81359863 7.65057373 C-20.38068131 6.95693878 -17.94580706 6.27052297 -15.51074219 5.58447266 C-14.07347033 5.17384329 -12.63628954 4.76289498 -11.19921875 4.3515625 C-9.35203247 3.82876709 -9.35203247 3.82876709 -7.4675293 3.29541016 C-4.31447924 2.20512591 -3.28749616 0.39136859 0 0 Z " fill="#396233" transform="translate(511.625,167.6875)"/>
<path d="M0 0 C3.78365878 0.13327957 7.56161729 0.24792515 11.34765625 0.25390625 C15.21588931 0.37380254 17.37382689 0.54329576 20.5546875 2.86328125 C23.0504356 8.27972915 22.36133532 14.02934467 22.13671875 19.89648438 C22.08005112 25.33170204 22.08005112 25.33170204 24.60595703 29.95092773 C28.51403855 33.01956119 32.56948132 34.89836212 37.375 36.1875 C38.49390625 36.50332031 39.6128125 36.81914062 40.765625 37.14453125 C42.73376062 37.66508886 44.70238445 38.18381114 46.671875 38.69921875 C51.43692842 40.01188474 55.34776056 41.67873456 59.625 44.1875 C64.63841451 47.00007476 67.29359813 47.99635588 73 47 C79.4099198 44.87042334 83.45725888 41.69315767 87.9375 36.6875 C92.16407896 32.22168072 92.16407896 32.22168072 95.828125 31.25 C101.54821953 31.12497061 105.98696303 32.34603925 111 35 C115.60187975 37.40552805 120.22720912 39.22784598 125.12109375 40.9375 C128 42 128 42 131.3125 43.60546875 C135.62226107 45.23532542 139.01440037 45.41356888 143.5625 45.3125 C144.65594727 45.31733398 144.65594727 45.31733398 145.77148438 45.32226562 C150.24540584 45.27796937 153.76412814 44.56026359 158 43 C163.76946284 42.53472074 168.9253209 42.9844479 174 46 C176.04301518 47.82746771 176.89930236 49.24312841 177.26245117 51.97265625 C177.37904286 54.44178 177.41565469 56.90326066 177.4375 59.375 C177.98569412 76.38734181 184.2996771 90.22144113 192.12109375 105.0390625 C195.67464593 111.82175198 198.56722451 118.27683262 200.5625 125.6875 C204.1490059 138.770045 210.38613413 147.87085293 219.69921875 157.5078125 C225.49679738 163.54674593 232.08893175 170.46472129 234.8125 178.5 C236.36142307 183.06524693 238.73157621 185.51837185 242.734375 188.1328125 C251.45142315 191.46933783 261.73442338 187.67318014 269.76123047 184.09716797 C274.82948305 181.88987292 278.54650392 181.42594778 284 182 C285.59355425 187.68872161 284.16684861 190.94854128 281.8125 196.0625 C279.09216211 202.24904249 276.86717812 208.30138867 275.21484375 214.875 C271.80250312 223.6527251 265.37034002 230.07372477 258.75 236.5625 C257.95464844 237.36107422 257.15929687 238.15964844 256.33984375 238.98242188 C251.56051072 243.7192891 246.61298894 248.06008982 241.29638672 252.18505859 C238.13288166 254.68532402 235.14767776 257.36464139 232.15625 260.06640625 C230.09298001 261.91662119 227.98845616 263.7076266 225.875 265.5 C218.18930715 272.251774 210.71714057 280.27587633 209.83886719 290.96020508 C209.61063945 302.15265266 210.50699424 312.05994811 213 323 C214.87706388 334.14072171 215.78111757 346.57069451 209.44140625 356.421875 C205.74547643 361.24733015 201.54200178 365.46440213 197.1875 369.6875 C192.67116467 374.08010011 188.69028742 378.68788005 184.9375 383.75 C184.48463623 384.35158936 184.03177246 384.95317871 183.56518555 385.57299805 C179.85483654 390.71965656 176.79272343 396.04630891 177.25 402.5625 C177.9357138 406.01440704 177.9357138 406.01440704 179.125 409.3125 C178.91597607 415.47870598 174.3345659 418.94398771 170 423 C168.75863281 423.91845703 168.75863281 423.91845703 167.4921875 424.85546875 C164.33075611 427.57588542 162.43887966 430.60931303 160.25 434.125 C156.65618418 439.69504582 152.90061368 444.72718526 148.3203125 449.546875 C146.68025436 451.28080853 145.09613427 453.06846748 143.5546875 454.890625 C130.15303397 470.65847224 112.63790001 480.69644179 92 483 C78.16249992 483.99619083 78.16249992 483.99619083 73 480 C70.91361829 476.9699318 70.68601143 474.10899353 70.3125 470.5 C69.38049286 464.47107879 67.16426198 460.38421342 63.9296875 455.27734375 C61.39799624 450.97756852 59.51046455 446.49778027 57.66137695 441.87011719 C56.11480588 438.12623986 54.35098938 435.01642722 51.96484375 431.734375 C48.44107392 426.60724883 47.35375989 421.46310308 46.125 415.4375 C42.80556602 400.91733784 37.85838009 386.85606346 26 377 C23.36598917 375.49644991 20.79114523 374.23912174 17.96875 373.1328125 C16 372 16 372 15.16015625 370.1171875 C14.98438203 367.79353803 15.30769319 366.2393131 15.9375 364 C16.98607281 359.17794476 17.04804115 354.59327545 16.9375 349.6875 C16.74666746 339.28090398 17.57592715 328.98606869 18.4375 318.625 C18.50516571 317.80019135 18.57283142 316.97538269 18.64254761 316.12557983 C18.83954564 313.74219701 19.04143438 311.35929882 19.24609375 308.9765625 C19.30655884 308.26161118 19.36702393 307.54665985 19.42932129 306.81004333 C19.78200967 302.83267647 20.3183401 298.93292228 21 295 C21.65110149 288.08031496 20.2675924 284.89818998 16.125 279.4375 C11.06971768 272.61924107 8.29090275 266.78114956 9 258 C9.97478142 254.78895532 11.08027808 251.72129311 12.31054688 248.60546875 C13.99671192 244.01719991 14.16812269 240.74293033 13 236 C10.12088158 233.12088158 7.89051361 233.72878067 3.875 233.625 C-5.51880719 233.19222902 -10.61216993 230.87920161 -17 224 C-17.45117188 223.45472656 -17.90234375 222.90945313 -18.3671875 222.34765625 C-22.1272495 218.37246632 -25.16294658 217.51861522 -30.625 217.3125 C-37.06364667 217.57361908 -42.29707011 219.21345726 -48.16015625 221.80859375 C-54.16565756 224.32809568 -60.32624129 224.59203018 -66.71484375 223.5625 C-72.05291993 222.56006634 -72.05291993 222.56006634 -76.9765625 224.234375 C-78.11232845 225.32346563 -79.23500629 226.42638016 -80.34375 227.54296875 C-82.5655403 229.4975154 -84.76337675 230.13735378 -87.703125 230.296875 C-101.30990226 228.5381759 -111.96053253 218.51206078 -121.12109375 209.16015625 C-122.62248523 207.62756703 -124.13431475 206.10594034 -125.6484375 204.5859375 C-129.85998037 200.33916858 -134.00189185 196.07133208 -137.87890625 191.51171875 C-140.42652303 188.54077273 -142.99369991 186.30884812 -146.3125 184.1875 C-149.41484297 182.1873677 -150.91810905 181.12283642 -153 178 C-154.31575043 171.6742768 -152.63224516 166.80501597 -150 161.0625 C-145.89210416 151.83911123 -144.57724436 140.56058917 -148.13671875 130.921875 C-149.01443949 129.32236099 -149.9214052 127.7383779 -150.86328125 126.17578125 C-152.9802713 122.12367315 -152.90557239 118.4097438 -152 114 C-147.58153278 101.77446663 -138.80870934 91.71523782 -130.10546875 82.29296875 C-128.23791796 80.25910546 -126.4601578 78.17852977 -124.6875 76.0625 C-121.10738643 71.92378715 -117.08327861 68.30943944 -112.9987793 64.67993164 C-110.10197486 62.16184026 -110.10197486 62.16184026 -108 59 C-108.06033629 57.16286407 -108.12488162 55.32568073 -108.21948242 53.48999023 C-108.68248799 42.65128511 -108.68248799 42.65128511 -105.6875 38.9375 C-102.09999846 35.6482468 -97.7518003 33.32918528 -93.6171875 30.796875 C-86.68993077 26.04084799 -84.00529965 19.22057292 -81.17578125 11.5390625 C-80 9 -80 9 -77 7 C-73.30104326 6.71546487 -70.47314741 6.84690517 -66.93359375 7.9921875 C-62.1121055 9.41907185 -57.30860114 9.38353524 -52.3125 9.375 C-51.33514893 9.37338867 -50.35779785 9.37177734 -49.35083008 9.37011719 C-41.95280362 9.24465394 -35.74994791 8.14997569 -29 5 C-28.20851563 4.64164062 -27.41703125 4.28328125 -26.6015625 3.9140625 C-25.11486847 3.23921504 -23.62913245 2.56225161 -22.14453125 1.8828125 C-15.9027432 -0.68666673 -6.34472727 -3.17236363 0 0 Z " fill="#DFA42A" transform="translate(449,267)"/>
<path d="M0 0 C20.80609081 -0.65210079 40.61776309 5.84674673 55.92578125 20.1875 C71.20577551 35.58363172 78.80275191 58.97777538 78.80053711 80.28637695 C78.22286318 100.73944452 65.37179821 119.83637711 51.11328125 133.6328125 C47.00525843 137.28235063 42.74461832 140.47216473 37.86328125 143 C35.21732471 144.8447037 35.21732471 144.8447037 35.07080078 147.02270508 C35.20365171 152.79269172 35.8336752 158.365418 36.73828125 164.0625 C37.75202222 170.74322876 38.61973261 177.39679666 39.23828125 184.125 C40.41527305 196.34942599 42.63125107 208.42379221 44.72851562 220.51708984 C45.31927864 223.93306337 45.89825091 227.35077511 46.47265625 230.76953125 C48.45605712 242.53291535 48.45605712 242.53291535 50.98828125 254.1875 C53.91146 266.37539828 55.04744763 278.68157505 54.36328125 291.1875 C52.29603084 293.25475041 47.85455028 292.34482712 45.00732422 292.34863281 C44.13084732 292.35359772 43.25437042 292.35856262 42.35133362 292.36367798 C39.43603747 292.37834586 36.52079582 292.38511098 33.60546875 292.390625 C31.58342486 292.3963748 29.561381 292.40213256 27.53933716 292.40789795 C23.2905451 292.41842256 19.04177203 292.42425495 14.79296875 292.42773438 C9.35559184 292.43320733 3.91846684 292.45720353 -1.51883125 292.48570633 C-5.70021284 292.50436131 -9.88153427 292.50953994 -14.06295395 292.51107025 C-16.06676478 292.51409331 -18.07057464 292.52211013 -20.07434464 292.53525543 C-22.88455351 292.5523676 -25.69415426 292.55042247 -28.50439453 292.54394531 C-29.32857376 292.5531601 -30.15275299 292.56237488 -31.00190735 292.5718689 C-36.26979641 292.53395833 -39.96758601 291.68294366 -44.63671875 289.1875 C-46.13078593 286.28139286 -45.55752829 284.23926725 -44.69921875 281.1875 C-43.65061821 276.36531726 -43.58925691 271.7808326 -43.69921875 266.875 C-43.87755531 256.59466178 -43.09730108 246.42455057 -42.26171875 236.1875 C-42.16662521 234.98871719 -42.16662521 234.98871719 -42.0696106 233.76571655 C-40.1706346 210.03384143 -40.1706346 210.03384143 -36.45751953 199.66699219 C-34.63283941 194.15496028 -33.41874351 188.45661254 -32.07421875 182.8125 C-31.61885742 180.93691406 -31.61885742 180.93691406 -31.15429688 179.0234375 C-28.93297308 169.77034142 -26.75261177 160.50812709 -26.01171875 151 C-25.93695313 150.07832031 -25.8621875 149.15664063 -25.78515625 148.20703125 C-25.73617187 147.54058594 -25.6871875 146.87414062 -25.63671875 146.1875 C-26.35730469 145.91808594 -27.07789063 145.64867187 -27.8203125 145.37109375 C-47.2739483 137.19571005 -60.39283508 120.08318841 -68.43115234 101.17138672 C-74.8053181 85.13278637 -76.23425028 68.1326111 -69.47119141 52.03271484 C-65.09256954 42.35055451 -59.18068318 33.53267445 -52.63671875 25.1875 C-52.05792969 24.41921875 -51.47914063 23.6509375 -50.8828125 22.859375 C-40.69885667 10.27790041 -25.21960323 2.19495399 -9.19921875 0.375 C-6.13192605 0.23001718 -3.06721109 0.15813763 0 0 Z " fill="#B74613" transform="translate(509.63671875,349.8125)"/>
<path d="M0 0 C4.65516601 1.48569128 4.65516601 1.48569128 6.14453125 3.70703125 C11.37854567 20.20488956 5.47349362 35.03713428 -1.41015625 49.97509766 C-3.86698266 55.39480331 -5.6382166 60.90533231 -7.05078125 66.68554688 C-8.49274714 71.96729313 -10.68020431 73.94038124 -15 77 C-18.27021959 78.63510979 -21.84733751 78.22628299 -25.4375 78.25 C-26.21416016 78.270625 -26.99082031 78.29125 -27.79101562 78.3125 C-33.46577917 78.35160259 -33.46577917 78.35160259 -35.72192383 76.86669922 C-39.24920102 71.71492053 -37.30718806 62.99572828 -36.39648438 57.07910156 C-35.76153237 53.74462141 -35.01729033 50.43997356 -34.22900391 47.13867188 C-33.74630459 45.10946497 -33.29164746 43.07534717 -32.83984375 41.0390625 C-28.90920513 23.7685325 -28.90920513 23.7685325 -22.3125 18.375 C-21.61640625 17.80265625 -20.9203125 17.2303125 -20.203125 16.640625 C-18.04240284 15.03157658 -15.83480237 13.5710106 -13.5625 12.125 C-8.34616744 8.78073104 -4.22631911 4.49608416 0 0 Z " fill="#E0A72B" transform="translate(707,607)"/>
<path d="M0 0 C3.20325536 3.19662336 6.39463589 6.40474511 9.58203125 9.6171875 C11.32545173 11.3698604 13.06894335 13.12246256 14.8125 14.875 C16.10897461 16.18404297 16.10897461 16.18404297 17.43164062 17.51953125 C21.97883487 22.08388472 26.56961545 26.49153774 31.51049805 30.62939453 C33 32 33 32 34 34 C30.79916583 33.41419516 29.09900088 32.49490876 26.75 30.26171875 C26.14704102 29.69437012 25.54408203 29.12702148 24.92285156 28.54248047 C24.28831055 27.93033691 23.65376953 27.31819336 23 26.6875 C22.34225586 26.06246582 21.68451172 25.43743164 21.00683594 24.79345703 C16.71373582 20.69625163 12.46308296 16.55442581 8.25 12.375 C7.76144531 11.89119873 7.27289063 11.40739746 6.76953125 10.90893555 C0 4.10704287 0 4.10704287 0 0 Z " fill="#375832" transform="translate(353,730)"/>
<path d="M0 0 C0.33 0 0.66 0 1 0 C1 24.42 1 48.84 1 74 C0.67 74 0.34 74 0 74 C-0.30985219 69.46144289 -0.61285774 64.92250131 -0.90942383 60.38305664 C-1.01136485 58.83768273 -1.11520206 57.29243272 -1.22094727 55.74731445 C-1.37229794 53.53105745 -1.51690518 51.31444963 -1.66015625 49.09765625 C-1.73351952 48.05545677 -1.73351952 48.05545677 -1.80836487 46.99220276 C-1.91245041 45.33016558 -1.96176577 43.6648542 -2 42 C-1.505 41.505 -1.505 41.505 -1 41 C-0.8396444 37.97192956 -0.74039552 34.96414546 -0.68359375 31.93359375 C-0.66281265 31.02497086 -0.64203156 30.11634796 -0.62062073 29.18019104 C-0.55502328 26.26604054 -0.4961932 23.35179696 -0.4375 20.4375 C-0.39432446 18.46678709 -0.35071049 16.49608374 -0.30664062 14.52539062 C-0.19933157 9.68369012 -0.09809325 4.84189563 0 0 Z " fill="#1F461E" transform="translate(236,372)"/>
<path d="M0 0 C0.33 0 0.66 0 1 0 C1.04898438 1.05960937 1.09796875 2.11921875 1.1484375 3.2109375 C1.22346709 4.59898497 1.29901485 5.98700451 1.375 7.375 C1.42140625 8.42300781 1.42140625 8.42300781 1.46875 9.4921875 C1.59499498 13.70185827 1.59499498 13.70185827 4 17 C4.04345703 19.79736328 4.04345703 19.79736328 3.7578125 23.3203125 C3.66113281 24.57714844 3.56445312 25.83398438 3.46484375 27.12890625 C3.35179148 28.46095695 3.23850721 29.79298799 3.125 31.125 C3.01855633 32.46476665 2.9130755 33.80461017 2.80859375 35.14453125 C2.54854766 38.43056816 2.27860504 41.71549298 2 45 C1.67 45 1.34 45 1 45 C0.67 42.69 0.34 40.38 0 38 C-0.33 38 -0.66 38 -1 38 C-1.13809004 25.29571603 -0.74136918 12.68270851 0 0 Z " fill="#497143" transform="translate(787,416)"/>
<path d="M0 0 C5.21333164 7.81999746 4.24494498 17.54356013 4.125 26.5625 C4.11597656 27.85736328 4.10695313 29.15222656 4.09765625 30.48632812 C4.07425094 33.65774771 4.04146228 36.82877373 4 40 C2.02 40.495 2.02 40.495 0 41 C0.144375 40.41734375 0.28875 39.8346875 0.4375 39.234375 C3.41243806 26.09506522 1.54798083 13.2131221 0 0 Z " fill="#183C2E" transform="translate(660,580)"/>
<path d="M0 0 C4.98976197 1.68305463 9.13074162 4.50743837 13.5 7.375 C14.24636719 7.85710938 14.99273437 8.33921875 15.76171875 8.8359375 C19.67249692 11.38313461 23.41565823 13.99882495 27 17 C22.49502123 16.48341924 19.5783126 15.4286944 15.8203125 12.91015625 C14.8921875 12.29076172 13.9640625 11.67136719 13.0078125 11.03320312 C12.05648438 10.38287109 11.10515625 9.73253906 10.125 9.0625 C9.15046875 8.41603516 8.1759375 7.76957031 7.171875 7.10351562 C1.87808198 3.53354176 1.87808198 3.53354176 0 2 C0 1.34 0 0.68 0 0 Z " fill="#345630" transform="translate(436,802)"/>
<path d="M0 0 C3.67102916 3.35733845 6.24294023 7.11379435 8.9375 11.25 C9.37626465 11.91588135 9.8150293 12.5817627 10.26708984 13.26782227 C13.2465147 17.80334109 16.16638343 22.3717596 19 27 C10.54150529 23.68036904 4.16768626 10.71021959 0 3 C0 2.01 0 1.02 0 0 Z " fill="#2E4E29" transform="translate(305,668)"/>
<path d="M0 0 C2.15737915 2.15737915 2.706392 3.51775557 3.7265625 6.3515625 C4.0359375 7.20234375 4.3453125 8.053125 4.6640625 8.9296875 C4.98117187 9.81914063 5.29828125 10.70859375 5.625 11.625 C5.94984375 12.5221875 6.2746875 13.419375 6.609375 14.34375 C7.41126708 16.56074574 8.20790954 18.7794874 9 21 C8.01 21 7.02 21 6 21 C5.34 19.68 4.68 18.36 4 17 C3.34 17 2.68 17 2 17 C1.93941406 16.443125 1.87882812 15.88625 1.81640625 15.3125 C1.25529435 10.20206543 0.64909148 5.10000447 0 0 Z " fill="#31522C" transform="translate(263,581)"/>
<path d="M0 0 C0.33 0 0.66 0 1 0 C1.33997574 3.64524519 1.67074937 7.29127169 2 10.9375 C2.14308594 12.46987305 2.14308594 12.46987305 2.2890625 14.03320312 C2.82746552 20.05177969 3.10081112 25.95763352 3 32 C2.67 32 2.34 32 2 32 C-0.43802084 25.38662851 -0.22824645 19.04751938 -0.125 12.0625 C-0.11597656 10.90169922 -0.10695312 9.74089844 -0.09765625 8.54492188 C-0.07421162 5.69639892 -0.04139522 2.84830922 0 0 Z " fill="#1B3A19" transform="translate(237,448)"/>
<path d="M0 0 C-10.07436764 4.4248203 -19.23596845 4.43056126 -30 4 C-30 3.67 -30 3.34 -30 3 C-29.21753906 2.93941406 -28.43507813 2.87882812 -27.62890625 2.81640625 C-26.61699219 2.73261719 -25.60507812 2.64882813 -24.5625 2.5625 C-23.55316406 2.48128906 -22.54382813 2.40007812 -21.50390625 2.31640625 C-19.06359221 2.26788532 -19.06359221 2.26788532 -18 1 C-16.60416276 0.97942977 -15.20745395 1.00875806 -13.8125 1.0625 C-8.88632855 1.14081751 -4.5652054 -1.52173513 0 0 Z " fill="#19412D" transform="translate(420,273)"/>
<path d="M0 0 C0.33 0.66 0.66 1.32 1 2 C0.22265625 3.7265625 0.22265625 3.7265625 -0.9375 5.625 C-1.618125 6.73875 -2.29875 7.8525 -3 9 C-3.66 9 -4.32 9 -5 9 C-5.85298376 12.67387495 -6.10789471 16.0447393 -6.0625 19.8125 C-6.05347656 20.78832031 -6.04445313 21.76414062 -6.03515625 22.76953125 C-6.02355469 23.50558594 -6.01195312 24.24164062 -6 25 C-8.91380612 21.60689941 -8.91380612 21.60689941 -9.28515625 18.9921875 C-8.51112347 11.63208636 -5.24840814 5.24840814 0 0 Z " fill="#123C2E" transform="translate(634,650)"/>
<path d="M0 0 C0.33 0 0.66 0 1 0 C1.02701408 2.10409639 1.04640223 4.20829178 1.0625 6.3125 C1.07410156 7.48425781 1.08570313 8.65601563 1.09765625 9.86328125 C1 13 1 13 0 16 C-0.66 16 -1.32 16 -2 16 C-2 18.64 -2 21.28 -2 24 C-2.33 24 -2.66 24 -3 24 C-3.18451025 11.33029613 -3.18451025 11.33029613 -2 6 C-1.34 6 -0.68 6 0 6 C0 4.02 0 2.04 0 0 Z " fill="#CD3D0E" transform="translate(471,568)"/>
<path d="M0 0 C0.33 0.99 0.66 1.98 1 3 C-5.93 9.435 -5.93 9.435 -13 16 C-13.66 15.67 -14.32 15.34 -15 15 C-10 10 -5 5 0 0 Z " fill="#E9BC34" transform="translate(574,469)"/>
<path d="M0 0 C0.33 0 0.66 0 1 0 C1.06058594 1.03640625 1.12117187 2.0728125 1.18359375 3.140625 C1.26803371 4.51042873 1.35267997 5.88021975 1.4375 7.25 C1.47681641 7.93191406 1.51613281 8.61382812 1.55664062 9.31640625 C1.78937547 13.21508252 1.78937547 13.21508252 2.5625 17.03125 C3.25294756 20.138264 2.82552756 23.09366927 2.5625 26.25 C2.46066406 27.51328125 2.35882813 28.7765625 2.25390625 30.078125 C2.17011719 31.04234375 2.08632812 32.0065625 2 33 C1.67 33 1.34 33 1 33 C-0.00708069 21.9760632 -0.10611887 11.05994427 0 0 Z " fill="#5B7C52" transform="translate(235,429)"/>
<path d="M0 0 C-3.14581646 2.09721098 -5.8408918 3.05667086 -9.4375 4.1875 C-10.57058594 4.55230469 -11.70367187 4.91710937 -12.87109375 5.29296875 C-15.8339997 5.96248932 -17.22004965 6.07236414 -20 5 C-13.33194251 1.42201793 -7.60331789 -0.31033951 0 0 Z " fill="#2D4F28" transform="translate(295,234)"/>
<path d="M0 0 C0.76849965 2.25542675 1.15628879 3.53906176 0.37915039 5.83105469 C0.03875732 6.43852539 -0.30163574 7.04599609 -0.65234375 7.671875 C-1.01650391 8.33574219 -1.38066406 8.99960937 -1.75585938 9.68359375 C-2.14580078 10.36550781 -2.53574219 11.04742188 -2.9375 11.75 C-3.32357422 12.44738281 -3.70964844 13.14476562 -4.10742188 13.86328125 C-5.06073637 15.5816012 -6.02895346 17.29163804 -7 19 C-7.66 19 -8.32 19 -9 19 C-7.6077541 14.37324343 -5.70479016 10.35313769 -3.375 6.125 C-2.74335937 4.97257813 -2.11171875 3.82015625 -1.4609375 2.6328125 C-0.97882812 1.76398437 -0.49671875 0.89515625 0 0 Z " fill="#2B4D28" transform="translate(737,635)"/>
<path d="M0 0 C0.66 0.33 1.32 0.66 2 1 C0.54207031 1.73476563 0.54207031 1.73476563 -0.9453125 2.484375 C-4.37756003 4.77507604 -4.37756003 4.77507604 -4.8046875 8.890625 C-4.85750038 10.34297908 -4.88013535 11.79669507 -4.875 13.25 C-4.895625 13.99507813 -4.91625 14.74015625 -4.9375 15.5078125 C-4.98442939 17.33805864 -4.99574223 19.16915725 -5 21 C-5.33 21 -5.66 21 -6 21 C-6.39785107 18.66262497 -6.72467911 16.35313319 -7 14 C-7.103125 13.24332031 -7.20625 12.48664063 -7.3125 11.70703125 C-7.50725529 9.28476238 -7.56657149 7.36809176 -7 5 C-4.94084868 2.78126445 -2.68759648 1.36436658 0 0 Z " fill="#F0CB39" transform="translate(551,490)"/>
<path d="M0 0 C3.79049707 1.42749981 7.27122456 3.16236542 10.8125 5.125 C12.27623047 5.93324219 12.27623047 5.93324219 13.76953125 6.7578125 C14.50558594 7.16773438 15.24164063 7.57765625 16 8 C16 8.66 16 9.32 16 10 C10.65697176 8.49299203 5.53804169 6.21962115 1 3 C0.67 2.01 0.34 1.02 0 0 Z " fill="#33552F" transform="translate(470,823)"/>
<path d="M0 0 C0.51171875 2.1640625 0.51171875 2.1640625 0.6875 4.625 C0.78611328 5.85089844 0.78611328 5.85089844 0.88671875 7.1015625 C0.92410156 7.72804688 0.96148437 8.35453125 1 9 C0.67 9 0.34 9 0 9 C-0.28875 7.88625 -0.5775 6.7725 -0.875 5.625 C-1.69241329 1.99708908 -1.69241329 1.99708908 -4 0 C-7.12196336 -0.46486718 -7.12196336 -0.46486718 -10.625 -0.625 C-11.81351562 -0.69976562 -13.00203125 -0.77453125 -14.2265625 -0.8515625 C-15.14179688 -0.90054687 -16.05703125 -0.94953125 -17 -1 C-17 -1.33 -17 -1.66 -17 -2 C-10.65662463 -2.98431687 -5.59430386 -3.7295359 0 0 Z " fill="#EFC730" transform="translate(464,501)"/>
<path d="M0 0 C5.60461531 0.42089996 10.72086547 0.91613111 16 3 C16 3.66 16 4.32 16 5 C10.34979382 4.39891424 5.33835539 2.92471317 0 1 C0 0.67 0 0.34 0 0 Z " fill="#30532B" transform="translate(629,204)"/>
<path d="M0 0 C3.67758005 3.28355362 5.81389118 6.62778237 8 11 C7.67 11.66 7.34 12.32 7 13 C4.84526801 11.4198632 2.89353366 9.89353366 1 8 C1 7.01 1 6.02 1 5 C0.68911632 3.32900023 0.35919668 1.66128463 0 0 Z " fill="#2E4F2A" transform="translate(296,653)"/>
<path d="M0 0 C5.65394631 -0.34615998 9.03006806 0.56574762 14 3 C14 3.66 14 4.32 14 5 C12.03964825 4.55037804 10.08175691 4.09001752 8.125 3.625 C7.03445313 3.36976563 5.94390625 3.11453125 4.8203125 2.8515625 C2 2 2 2 0 0 Z " fill="#30532B" transform="translate(708,227)"/>
<path d="M0 0 C2.10495964 0.06005591 4.20911435 0.14885359 6.3125 0.25 C7.48425781 0.29640625 8.65601563 0.3428125 9.86328125 0.390625 C13 1 13 1 14.91796875 3.046875 C15.27503906 3.69140625 15.63210938 4.3359375 16 5 C10.47293087 4.27275406 5.30039859 2.66554027 0 1 C0 0.67 0 0.34 0 0 Z " fill="#294D26" transform="translate(540,178)"/>
<path d="M0 0 C-1.19295133 3.57885399 -2.24467062 4.18134909 -5.3125 6.25 C-6.48232422 7.06210937 -6.48232422 7.06210937 -7.67578125 7.890625 C-10 9 -10 9 -12.29296875 8.671875 C-12.85628906 8.45015625 -13.41960938 8.2284375 -14 8 C-12.04532248 6.66101601 -10.0866421 5.32870953 -8.125 4 C-7.03445313 3.2575 -5.94390625 2.515 -4.8203125 1.75 C-2 0 -2 0 0 0 Z " fill="#31522D" transform="translate(589,802)"/>
<path d="M0 0 C2.49552403 2.27597646 4.06622986 4.60721178 5.6875 7.5625 C6.12449219 8.34753906 6.56148438 9.13257813 7.01171875 9.94140625 C8 12 8 12 8 14 C5 13 5 13 3.61328125 10.8203125 C3.18402344 9.93085937 2.75476563 9.04140625 2.3125 8.125 C1.87550781 7.24070312 1.43851562 6.35640625 0.98828125 5.4453125 C0 3 0 3 0 0 Z " fill="#30502B" transform="translate(287,637)"/>
<path d="M0 0 C1 3 1 3 -0.14453125 5.48046875 C-0.97017578 6.82044922 -0.97017578 6.82044922 -1.8125 8.1875 C-2.35519531 9.08855469 -2.89789062 9.98960937 -3.45703125 10.91796875 C-3.96621094 11.60503906 -4.47539063 12.29210937 -5 13 C-5.66 13 -6.32 13 -7 13 C-5.35821735 8.22390502 -2.73453298 4.20617096 0 0 Z " fill="#2B4D28" transform="translate(726,656)"/>
<path d="M0 0 C0.55171875 0.22558594 1.1034375 0.45117188 1.671875 0.68359375 C0.09840324 1.71956275 -1.48734046 2.73691107 -3.078125 3.74609375 C-3.95984375 4.31457031 -4.8415625 4.88304687 -5.75 5.46875 C-8.328125 6.68359375 -8.328125 6.68359375 -10.65625 6.3671875 C-11.48382812 6.02880859 -11.48382812 6.02880859 -12.328125 5.68359375 C-10.75465324 4.64762475 -9.16890954 3.63027643 -7.578125 2.62109375 C-6.69640625 2.05261719 -5.8146875 1.48414063 -4.90625 0.8984375 C-2.328125 -0.31640625 -2.328125 -0.31640625 0 0 Z " fill="#365730" transform="translate(564.328125,818.31640625)"/>
<path d="M0 0 C4.04420651 1.77945087 7.46078487 4.39529673 11 7 C10.01 7.33 9.02 7.66 8 8 C5.95703125 6.85546875 5.95703125 6.85546875 3.8125 5.1875 C3.09707031 4.64480469 2.38164062 4.10210938 1.64453125 3.54296875 C1.10183594 3.03378906 0.55914062 2.52460937 0 2 C0 1.34 0 0.68 0 0 Z " fill="#2D4F29" transform="translate(418,789)"/>
<path d="M0 0 C0.66 1.32 1.32 2.64 2 4 C2.66 4 3.32 4 4 4 C4.3367697 8.93928888 4.16130459 9.78492722 1 14 C0.67 9.38 0.34 4.76 0 0 Z " fill="#4C7045" transform="translate(238,475)"/>
<path d="M0 0 C1 3 1 3 0.00390625 5.04296875 C-0.47175781 5.75066406 -0.94742188 6.45835937 -1.4375 7.1875 C-1.91058594 7.90292969 -2.38367188 8.61835937 -2.87109375 9.35546875 C-3.24363281 9.89816406 -3.61617187 10.44085937 -4 11 C-4.99 10.67 -5.98 10.34 -7 10 C-3.535 5.05 -3.535 5.05 0 0 Z " fill="#2B4C27" transform="translate(708,684)"/>
<path d="M0 0 C1.12329712 0.07069702 1.12329712 0.07069702 2.26928711 0.14282227 C3.07817383 0.19116211 3.88706055 0.23950195 4.72045898 0.28930664 C5.99566406 0.37341797 5.99566406 0.37341797 7.29663086 0.45922852 C8.57763672 0.53753906 8.57763672 0.53753906 9.88452148 0.61743164 C12.00135081 0.74751612 14.1177833 0.88402822 16.23413086 1.02172852 C16.23413086 1.35172852 16.23413086 1.68172852 16.23413086 2.02172852 C13.81801553 2.24410729 11.40235916 2.45005191 8.98413086 2.64672852 C8.3022168 2.71118164 7.62030273 2.77563477 6.91772461 2.84204102 C3.11142596 3.13767586 0.45603239 3.19734244 -2.76586914 1.02172852 C-1.76586914 0.02172852 -1.76586914 0.02172852 0 0 Z " fill="#B94F1C" transform="translate(470.765869140625,638.978271484375)"/>
<path d="M0 0 C-0.33 1.32 -0.66 2.64 -1 4 C-8.75 3.25 -8.75 3.25 -11 1 C-7.27569643 0.30710631 -3.78916254 -0.11144596 0 0 Z " fill="#34552E" transform="translate(684,216)"/>
<path d="M0 0 C2.66666667 2.66666667 5.33333333 5.33333333 8 8 C7.67 8.66 7.34 9.32 7 10 C4.09197539 7.78071806 2.04687238 6.07030857 0 3 C0 2.01 0 1.02 0 0 Z " fill="#2D4D28" transform="translate(333,707)"/>
<path d="M0 0 C0.66 0 1.32 0 2 0 C2 2.97 2 5.94 2 9 C0.68 9.33 -0.64 9.66 -2 10 C-1.34 6.7 -0.68 3.4 0 0 Z " fill="#224A31" transform="translate(662,611)"/>
<path d="M0 0 C2.64 0.33 5.28 0.66 8 1 C6 3 6 3 4 3.375 C1.79734983 3.82123176 1.79734983 3.82123176 0.75 6.0625 C0.5025 6.701875 0.255 7.34125 0 8 C0 5.36 0 2.72 0 0 Z " fill="#264623" transform="translate(235,248)"/>
<path d="M0 0 C4.82360189 -0.19294408 8.49646738 0.24252386 13 2 C13 2.33 13 2.66 13 3 C8.17639811 3.19294408 4.50353262 2.75747614 0 1 C0 0.67 0 0.34 0 0 Z " fill="#355630" transform="translate(774,246)"/>
<path d="M0 0 C1.43861294 0.08746284 2.87597508 0.19565348 4.3125 0.3125 C5.11300781 0.37050781 5.91351562 0.42851562 6.73828125 0.48828125 C9.36272334 1.08206694 10.30820672 1.95780294 12 4 C7.6822542 3.49202991 3.96697886 2.80317221 0 1 C0 0.67 0 0.34 0 0 Z " fill="#284A24" transform="translate(568,186)"/>
<path d="M0 0 C0.66 0.33 1.32 0.66 2 1 C1.67 1.99 1.34 2.98 1 4 C-2.0625 5.1875 -2.0625 5.1875 -5 6 C-5.33 5.01 -5.66 4.02 -6 3 C-4.03533587 1.93224776 -2.03144641 0.93446535 0 0 Z " fill="#41683C" transform="translate(533,833)"/>
<path d="M0 0 C0.33 0 0.66 0 1 0 C0.125 7.625 0.125 7.625 -1 11 C-1.66 11 -2.32 11 -3 11 C-2.44894091 7.0507432 -1.61064629 3.65079826 0 0 Z " fill="#294B26" transform="translate(765,568)"/>
<path d="M0 0 C2.97 0.33 5.94 0.66 9 1 C9.33 1.99 9.66 2.98 10 4 C8.51882199 3.71872579 7.04006751 3.42466268 5.5625 3.125 C4.73878906 2.96257812 3.91507813 2.80015625 3.06640625 2.6328125 C2.38449219 2.42398438 1.70257812 2.21515625 1 2 C0.67 1.34 0.34 0.68 0 0 Z " fill="#2D5129" transform="translate(695,223)"/>
<path d="M0 0 C3.99500618 1.3697164 6.80009492 3.25722422 10 6 C6.38238619 5.67112602 4.44334967 5.37334709 1.625 3 C0 1 0 1 0 0 Z " fill="#2E502B" transform="translate(453,813)"/>
<path d="M0 0 C2 0 2 0 4.5 2.3125 C7 5 7 5 9 8 C6.64277278 7.82539058 5.30294138 7.3003668 3.62109375 5.6328125 C0 1.32051282 0 1.32051282 0 0 Z " fill="#2A4B26" transform="translate(378,756)"/>
<path d="M0 0 C0.33 0.99 0.66 1.98 1 3 C-1.3125 6.1875 -1.3125 6.1875 -4 9 C-4.66 9 -5.32 9 -6 9 C-4.47291037 5.56404834 -2.40072955 2.88087546 0 0 Z " fill="#2D4E29" transform="translate(686,713)"/>
<path d="M0 0 C0.33 0 0.66 0 1 0 C0.54177532 3.46941546 0.10868317 6.67395049 -1 10 C-1.66 10 -2.32 10 -3 10 C-2.49287967 6.28111761 -1.88391785 3.26545761 0 0 Z " fill="#2D4F29" transform="translate(756,593)"/>
<path d="M0 0 C1.12383849 3.37151546 1.16190374 4.68027502 0 8 C-2.5625 9.8125 -2.5625 9.8125 -5 11 C-3.55049545 7.2089881 -1.84827434 3.6125362 0 0 Z " fill="#1F4530" transform="translate(724,481)"/>
<path d="M0 0 C0.66 0.33 1.32 0.66 2 1 C1.67 1.99 1.34 2.98 1 4 C-1.31 4.33 -3.62 4.66 -6 5 C-3.375 1.125 -3.375 1.125 0 0 Z " fill="#43693E" transform="translate(517,841)"/>
<path d="M0 0 C0.99 0.33 1.98 0.66 3 1 C3.33 2.98 3.66 4.96 4 7 C3.01 7.495 3.01 7.495 2 8 C0.23537317 4.91190305 0 3.76687864 0 0 Z " fill="#33542D" transform="translate(276,614)"/>
<path d="M0 0 C0.33 0.99 0.66 1.98 1 3 C1.66 3 2.32 3 3 3 C3.80967438 5.91482778 4.21845993 7.46113217 3.0625 10.3125 C2.5365625 11.1478125 2.5365625 11.1478125 2 12 C0.86235649 7.73383684 0 4.43513689 0 0 Z " fill="#4D6B44" transform="translate(246,525)"/>
<path d="M0 0 C-1.36983503 3.16115776 -1.9890638 3.9927092 -5 6 C-5.99 5.67 -6.98 5.34 -8 5 C-2.25 0 -2.25 0 0 0 Z " fill="#2F512A" transform="translate(619,780)"/>
<path d="M0 0 C0.33 0.66 0.66 1.32 1 2 C0.22265625 3.7265625 0.22265625 3.7265625 -0.9375 5.625 C-1.618125 6.73875 -2.29875 7.8525 -3 9 C-3.66 8.01 -4.32 7.02 -5 6 C-3.35 4.02 -1.7 2.04 0 0 Z " fill="#234A31" transform="translate(634,650)"/>
<path d="M0 0 C0.33 0 0.66 0 1 0 C1.25 2.75 1.25 2.75 1 6 C-1 8.375 -1 8.375 -3 10 C-2.01 6.7 -1.02 3.4 0 0 Z " fill="#2A4C28" transform="translate(760,582)"/>
<path d="M0 0 C-1.15173355 2.46800047 -2.04783565 4.04783565 -4 6 C-4.99 5.67 -5.98 5.34 -7 5 C-2.25 0 -2.25 0 0 0 Z " fill="#2F522C" transform="translate(645,758)"/>
<path d="M0 0 C0.66 1.32 1.32 2.64 2 4 C0.02 5.32 -1.96 6.64 -4 8 C-2.87548273 5.0280615 -1.77706209 2.66559313 0 0 Z " fill="#A6280E" transform="translate(450,385)"/>
<path d="M0 0 C-0.99 0.495 -0.99 0.495 -2 1 C-2 1.66 -2 2.32 -2 3 C-4.31 3 -6.62 3 -9 3 C-6.38997624 -0.48003168 -4.1689578 -0.27793052 0 0 Z " fill="#23461F" transform="translate(349,218)"/>
<path d="M0 0 C2.475 0.99 2.475 0.99 5 2 C3.02 2.99 3.02 2.99 1 4 C0.67 2.68 0.34 1.36 0 0 Z " fill="#4E7145" transform="translate(432,803)"/>
<path d="M0 0 C2.4375 0.375 2.4375 0.375 5 1 C5.33 1.66 5.66 2.32 6 3 C4.35 3 2.7 3 1 3 C0.67 2.01 0.34 1.02 0 0 Z " fill="#52744A" transform="translate(489,837)"/>
<path d="M0 0 C0.66 0.66 1.32 1.32 2 2 C1.67 2.99 1.34 3.98 1 5 C0.34 5 -0.32 5 -1 5 C-0.67 3.35 -0.34 1.7 0 0 Z " fill="#4F7146" transform="translate(401,779)"/>
<path d="M0 0 C0.66 0 1.32 0 2 0 C1.67 0.99 1.34 1.98 1 3 C0.34 3 -0.32 3 -1 3 C-0.67 2.01 -0.34 1.02 0 0 Z " fill="#4E7046" transform="translate(257,575)"/>
<path d="M0 0 C0.33 0 0.66 0 1 0 C1 1.65 1 3.3 1 5 C0.34 4.67 -0.32 4.34 -1 4 C-0.67 2.68 -0.34 1.36 0 0 Z " fill="#4F7145" transform="translate(233,434)"/>
<path d="M0 0 C0.33 0 0.66 0 1 0 C1 2.31 1 4.62 1 7 C0.67 7 0.34 7 0 7 C0 4.69 0 2.38 0 0 Z " fill="#507248" transform="translate(232,272)"/>
<path d="M0 0 C1.2065625 0.0309375 1.2065625 0.0309375 2.4375 0.0625 C0.5625 1.125 0.5625 1.125 -1.5625 2.0625 C-2.2225 1.7325 -2.8825 1.4025 -3.5625 1.0625 C-2.5625 0.0625 -2.5625 0.0625 0 0 Z " fill="#507447" transform="translate(480.5625,175.9375)"/>
<path d="M0 0 C0.99 0.33 1.98 0.66 3 1 C3 1.66 3 2.32 3 3 C2.01 2.67 1.02 2.34 0 2 C0 1.34 0 0.68 0 0 Z " fill="#507349" transform="translate(473,828)"/>
<path d="M0 0 C1.485 0.99 1.485 0.99 3 2 C2.01 2.33 1.02 2.66 0 3 C0 2.01 0 1.02 0 0 Z " fill="#507347" transform="translate(232,457)"/>
<path d="M0 0 C1.65 0 3.3 0 5 0 C4.34 0.66 3.68 1.32 3 2 C2.01 1.34 1.02 0.68 0 0 Z " fill="#50764A" transform="translate(252,240)"/>
<path d="M0 0 C0.66 0.33 1.32 0.66 2 1 C2 1.66 2 2.32 2 3 C1.01 2.67 0.02 2.34 -1 2 C-0.67 1.34 -0.34 0.68 0 0 Z " fill="#4E7346" transform="translate(305,225)"/>
<path d="M0 0 C0.66 0.99 1.32 1.98 2 3 C1.01 2.67 0.02 2.34 -1 2 C-0.67 1.34 -0.34 0.68 0 0 Z " fill="#4E6F45" transform="translate(306,674)"/>
<path d="M0 0 C0.33 0 0.66 0 1 0 C1 1.65 1 3.3 1 5 C0.67 5 0.34 5 0 5 C0 3.35 0 1.7 0 0 Z " fill="#4C6F45" transform="translate(232,360)"/>
<path d="M0 0 C0.33 0 0.66 0 1 0 C1 1.65 1 3.3 1 5 C0.67 5 0.34 5 0 5 C0 3.35 0 1.7 0 0 Z " fill="#4D7046" transform="translate(232,304)"/>
<path d="M0 0 C0.99 0.33 1.98 0.66 3 1 C1.68 1.33 0.36 1.66 -1 2 C-0.67 1.34 -0.34 0.68 0 0 Z " fill="#507548" transform="translate(248,243)"/>
<path d="M0 0 C0.99 0.33 1.98 0.66 3 1 C2.34 1.66 1.68 2.32 1 3 C0.67 2.01 0.34 1.02 0 0 Z " fill="#4D7348" transform="translate(773,241)"/>
<path d="M0 0 C0.99 0 1.98 0 3 0 C2.67 0.66 2.34 1.32 2 2 C1.34 1.34 0.68 0.68 0 0 Z " fill="#4F7349" transform="translate(564,822)"/>
<path d="M0 0 C0.66 0.33 1.32 0.66 2 1 C1.01 1 0.02 1 -1 1 C-0.67 0.67 -0.34 0.34 0 0 Z " fill="#4D6E44" transform="translate(404,782)"/>
<path d="M0 0 C0.66 0.66 1.32 1.32 2 2 C1.01 2.495 1.01 2.495 0 3 C0 2.01 0 1.02 0 0 Z " fill="#4E6E44" transform="translate(276,621)"/>
<path d="M0 0 C1.485 0.99 1.485 0.99 3 2 C2.01 2 1.02 2 0 2 C0 1.34 0 0.68 0 0 Z " fill="#4F7047" transform="translate(272,616)"/>
<path d="M0 0 C0.99 0.495 0.99 0.495 2 1 C1.34 1.66 0.68 2.32 0 3 C0 2.01 0 1.02 0 0 Z " fill="#527449" transform="translate(264,601)"/>
<path d="M0 0 C1 4 1 4 1 4 Z " fill="#4F7345" transform="translate(233,442)"/>
<path d="M0 0 C0 3 0 3 0 3 Z " fill="#4E7044" transform="translate(233,431)"/>
<path d="M0 0 C0.33 0.99 0.66 1.98 1 3 C0.34 2.67 -0.32 2.34 -1 2 C-0.67 1.34 -0.34 0.68 0 0 Z " fill="#4A6E42" transform="translate(233,427)"/>
<path d="M0 0 C0.66 0 1.32 0 2 0 C1.67 0.99 1.34 1.98 1 3 C0.67 2.01 0.34 1.02 0 0 Z " fill="#4C6D42" transform="translate(232,419)"/>
<path d="M0 0 C1 4 1 4 1 4 Z " fill="#4C6E44" transform="translate(232,368)"/>
<path d="M0 0 C1 4 1 4 1 4 Z " fill="#4D7045" transform="translate(232,344)"/>
<path d="M0 0 C0.99 0.33 1.98 0.66 3 1 C2.01 1 1.02 1 0 1 C0 0.67 0 0.34 0 0 Z " fill="#4A6E44" transform="translate(765,240)"/>
<path d="M0 0 C0.99 0.33 1.98 0.66 3 1 C2.01 1 1.02 1 0 1 C0 0.67 0 0.34 0 0 Z " fill="#4C7146" transform="translate(745,234)"/>
<path d="M0 0 C0.66 0 1.32 0 2 0 C1.67 0.99 1.34 1.98 1 3 C0.67 2.01 0.34 1.02 0 0 Z " fill="#4D7247" transform="translate(717,224)"/>
<path d="M0 0 C0.66 0.66 1.32 1.32 2 2 C1.01 1.67 0.02 1.34 -1 1 C-0.67 0.67 -0.34 0.34 0 0 Z " fill="#4C7244" transform="translate(662,209)"/>
<path d="M0 0 C0.33 0.66 0.66 1.32 1 2 C0.34 1.67 -0.32 1.34 -1 1 C-0.67 0.67 -0.34 0.34 0 0 Z " fill="#4F7146" transform="translate(450,814)"/>
<path d="M0 0 C0.33 0.66 0.66 1.32 1 2 C0.34 1.67 -0.32 1.34 -1 1 C-0.67 0.67 -0.34 0.34 0 0 Z " fill="#4F7147" transform="translate(308,677)"/>
<path d="M0 0 C3 1 3 1 3 1 Z " fill="#4F7248" transform="translate(291,654)"/>
<path d="M0 0 C0.33 0.66 0.66 1.32 1 2 C0.34 1.67 -0.32 1.34 -1 1 C-0.67 0.67 -0.34 0.34 0 0 Z " fill="#4F7047" transform="translate(284,637)"/>
<path d="" fill="#4C6E44" transform="translate(0,0)"/>
<path d="" fill="#507046" transform="translate(0,0)"/>
<path d="" fill="#4B663D" transform="translate(0,0)"/>
<path d="" fill="#4F6F43" transform="translate(0,0)"/>
<path d="" fill="#4F7146" transform="translate(0,0)"/>
<path d="" fill="#4C6F44" transform="translate(0,0)"/>
<path d="M0 0 C3 1 3 1 3 1 Z " fill="#4D7144" transform="translate(274,236)"/>
<path d="M0 0 C3 1 3 1 3 1 Z " fill="#507548" transform="translate(288,232)"/>
<path d="M0 0 C0.99 0.495 0.99 0.495 2 1 C1.01 1.495 1.01 1.495 0 2 C0 1.34 0 0.68 0 0 Z " fill="#4D7245" transform="translate(694,218)"/>
<path d="M0 0 C3 1 3 1 3 1 Z " fill="#4D6F44" transform="translate(343,216)"/>
<path d="M0 0 C3 1 3 1 3 1 Z " fill="#45683F" transform="translate(652,208)"/>
<path d="M0 0 C3 1 3 1 3 1 Z " fill="#46683D" transform="translate(597,192)"/>
<path d="M0 0 C3 1 3 1 3 1 Z " fill="#517348" transform="translate(424,192)"/>
<path d="M0 0 C3 1 3 1 3 1 Z " fill="#4E6F46" transform="translate(516,168)"/>
<path d="M0 0 C2 1 2 1 2 1 Z " fill="#4D6F45" transform="translate(457,819)"/>
<path d="M0 0 C2 1 2 1 2 1 Z " fill="#517449" transform="translate(612,790)"/>
<path d="M0 0 C2 1 2 1 2 1 Z " fill="#4D6F44" transform="translate(393,773)"/>
<path d="M0 0 C2 1 2 1 2 1 Z " fill="#4E6B44" transform="translate(384,767)"/>
<path d="" fill="#506D45" transform="translate(0,0)"/>
<path d="" fill="#517249" transform="translate(0,0)"/>
<path d="" fill="#4F7046" transform="translate(0,0)"/>
<path d="" fill="#506E46" transform="translate(0,0)"/>
<path d="M0 0 C2 1 2 1 2 1 Z " fill="#507047" transform="translate(274,619)"/>
<path d="" fill="#527248" transform="translate(0,0)"/>
<path d="" fill="#506F45" transform="translate(0,0)"/>
<path d="" fill="#507248" transform="translate(0,0)"/>
<path d="" fill="#4D6E45" transform="translate(0,0)"/>
<path d="M0 0 C2 1 2 1 2 1 Z " fill="#507147" transform="translate(251,558)"/>
<path d="" fill="#4F7148" transform="translate(0,0)"/>
<path d="" fill="#4B6E45" transform="translate(0,0)"/>
<path d="" fill="#4D7045" transform="translate(0,0)"/>
<path d="" fill="#4E7144" transform="translate(0,0)"/>
<path d="" fill="#527348" transform="translate(0,0)"/>
<path d="" fill="#4D6F46" transform="translate(0,0)"/>
<path d="M0 0 C2 1 2 1 2 1 Z " fill="#4E7148" transform="translate(232,465)"/>
<path d="" fill="#4E7144" transform="translate(0,0)"/>
<path d="" fill="#4F7247" transform="translate(0,0)"/>
<path d="" fill="#4E7145" transform="translate(0,0)"/>
<path d="" fill="#507246" transform="translate(0,0)"/>
<path d="" fill="#4F6F43" transform="translate(0,0)"/>
<path d="" fill="#4E7146" transform="translate(0,0)"/>
<path d="" fill="#517149" transform="translate(0,0)"/>
<path d="" fill="#52754A" transform="translate(0,0)"/>
<path d="" fill="#4D7447" transform="translate(0,0)"/>
<path d="M0 0 C2 1 2 1 2 1 Z " fill="#4F7347" transform="translate(737,232)"/>
<path d="M0 0 C2 1 2 1 2 1 Z " fill="#4C7146" transform="translate(719,227)"/>
<path d="M0 0 C2 1 2 1 2 1 Z " fill="#4B7043" transform="translate(316,224)"/>
<path d="M0 0 C2 1 2 1 2 1 Z " fill="#4C7045" transform="translate(329,220)"/>
<path d="" fill="#4B7045" transform="translate(0,0)"/>
<path d="M0 0 C2 1 2 1 2 1 Z " fill="#497045" transform="translate(340,217)"/>
<path d="M0 0 C2 1 2 1 2 1 Z " fill="#4C7144" transform="translate(360,211)"/>
<path d="M0 0 C2 1 2 1 2 1 Z " fill="#4D7044" transform="translate(369,208)"/>
<path d="M0 0 C2 1 2 1 2 1 Z " fill="#486E44" transform="translate(636,203)"/>
<path d="M0 0 C2 1 2 1 2 1 Z " fill="#4A7045" transform="translate(633,202)"/>
<path d="M0 0 C2 1 2 1 2 1 Z " fill="#4A6E42" transform="translate(630,201)"/>
<path d="M0 0 C2 1 2 1 2 1 Z " fill="#4A6D40" transform="translate(625,200)"/>
<path d="M0 0 C2 1 2 1 2 1 Z " fill="#4B7044" transform="translate(606,194)"/>
<path d="M0 0 C2 1 2 1 2 1 Z " fill="#4A7243" transform="translate(421,193)"/>
<path d="M0 0 C2 1 2 1 2 1 Z " fill="#4A6E44" transform="translate(571,184)"/>
<path d="M0 0 C2 1 2 1 2 1 Z " fill="#4D7043" transform="translate(453,184)"/>
<path d="M0 0 C2 1 2 1 2 1 Z " fill="#4D7447" transform="translate(446,184)"/>
<path d="M0 0 C2 1 2 1 2 1 Z " fill="#4E7344" transform="translate(546,176)"/>
<path d="M0 0 C2 1 2 1 2 1 Z " fill="#4E7447" transform="translate(473,176)"/>
<path d="" fill="#57794F" transform="translate(0,0)"/>
<path d="" fill="#53764C" transform="translate(0,0)"/>
<path d="" fill="#57794F" transform="translate(0,0)"/>
<path d="" fill="#4D7147" transform="translate(0,0)"/>
<path d="" fill="#52754C" transform="translate(0,0)"/>
<path d="" fill="#517449" transform="translate(0,0)"/>
<path d="" fill="#50704A" transform="translate(0,0)"/>
<path d="" fill="#507247" transform="translate(0,0)"/>
<path d="" fill="#4F6D45" transform="translate(0,0)"/>
<path d="" fill="#4E6F47" transform="translate(0,0)"/>
<path d="" fill="#507349" transform="translate(0,0)"/>
<path d="" fill="#506F46" transform="translate(0,0)"/>
<path d="" fill="#4E734A" transform="translate(0,0)"/>
<path d="" fill="#51754B" transform="translate(0,0)"/>
<path d="" fill="#50764A" transform="translate(0,0)"/>
<path d="" fill="#51734B" transform="translate(0,0)"/>
<path d="" fill="#4F7349" transform="translate(0,0)"/>
<path d="" fill="#4F7248" transform="translate(0,0)"/>
<path d="" fill="#4E7346" transform="translate(0,0)"/>
<path d="" fill="#4D6D46" transform="translate(0,0)"/>
<path d="" fill="#4F7045" transform="translate(0,0)"/>
<path d="" fill="#527047" transform="translate(0,0)"/>
<path d="" fill="#4E6F46" transform="translate(0,0)"/>
<path d="" fill="#507248" transform="translate(0,0)"/>
<path d="" fill="#4F7149" transform="translate(0,0)"/>
<path d="" fill="#507248" transform="translate(0,0)"/>
<path d="" fill="#4F754A" transform="translate(0,0)"/>
<path d="" fill="#46683F" transform="translate(0,0)"/>
<path d="" fill="#506E46" transform="translate(0,0)"/>
<path d="" fill="#51714A" transform="translate(0,0)"/>
<path d="" fill="#51714A" transform="translate(0,0)"/>
<path d="" fill="#4D6D46" transform="translate(0,0)"/>
<path d="" fill="#4B6E43" transform="translate(0,0)"/>
<path d="" fill="#4E6F45" transform="translate(0,0)"/>
<path d="" fill="#4D6E43" transform="translate(0,0)"/>
<path d="" fill="#4B6D42" transform="translate(0,0)"/>
<path d="" fill="#4F7146" transform="translate(0,0)"/>
<path d="" fill="#506B45" transform="translate(0,0)"/>
<path d="" fill="#4E6C47" transform="translate(0,0)"/>
<path d="" fill="#4F7248" transform="translate(0,0)"/>
<path d="" fill="#506D46" transform="translate(0,0)"/>
<path d="" fill="#4F7048" transform="translate(0,0)"/>
<path d="" fill="#507247" transform="translate(0,0)"/>
<path d="" fill="#4F6642" transform="translate(0,0)"/>
<path d="" fill="#4F7148" transform="translate(0,0)"/>
<path d="" fill="#537349" transform="translate(0,0)"/>
<path d="" fill="#506A45" transform="translate(0,0)"/>
<path d="" fill="#527047" transform="translate(0,0)"/>
<path d="" fill="#4F6E46" transform="translate(0,0)"/>
<path d="" fill="#516D44" transform="translate(0,0)"/>
<path d="" fill="#4F6F42" transform="translate(0,0)"/>
<path d="" fill="#517249" transform="translate(0,0)"/>
<path d="" fill="#4F6F45" transform="translate(0,0)"/>
<path d="" fill="#517247" transform="translate(0,0)"/>
<path d="" fill="#4F7046" transform="translate(0,0)"/>
<path d="" fill="#4D6C43" transform="translate(0,0)"/>
<path d="" fill="#4F6F46" transform="translate(0,0)"/>
<path d="" fill="#4F7145" transform="translate(0,0)"/>
<path d="" fill="#4F7246" transform="translate(0,0)"/>
<path d="" fill="#53714A" transform="translate(0,0)"/>
<path d="" fill="#4D7147" transform="translate(0,0)"/>
<path d="" fill="#4E6E46" transform="translate(0,0)"/>
<path d="" fill="#53734A" transform="translate(0,0)"/>
<path d="" fill="#52734B" transform="translate(0,0)"/>
<path d="" fill="#57754B" transform="translate(0,0)"/>
<path d="" fill="#507044" transform="translate(0,0)"/>
<path d="" fill="#506E44" transform="translate(0,0)"/>
<path d="" fill="#527349" transform="translate(0,0)"/>
<path d="" fill="#527147" transform="translate(0,0)"/>
<path d="" fill="#506F46" transform="translate(0,0)"/>
<path d="" fill="#517147" transform="translate(0,0)"/>
<path d="" fill="#507449" transform="translate(0,0)"/>
<path d="" fill="#527248" transform="translate(0,0)"/>
<path d="" fill="#53754D" transform="translate(0,0)"/>
<path d="" fill="#4F6E44" transform="translate(0,0)"/>
<path d="" fill="#526F45" transform="translate(0,0)"/>
<path d="" fill="#517248" transform="translate(0,0)"/>
<path d="" fill="#516F47" transform="translate(0,0)"/>
<path d="" fill="#507147" transform="translate(0,0)"/>
<path d="" fill="#4F7247" transform="translate(0,0)"/>
<path d="" fill="#507248" transform="translate(0,0)"/>
<path d="" fill="#4F7048" transform="translate(0,0)"/>
<path d="" fill="#537146" transform="translate(0,0)"/>
<path d="" fill="#4A6D42" transform="translate(0,0)"/>
<path d="" fill="#506F46" transform="translate(0,0)"/>
<path d="" fill="#54764D" transform="translate(0,0)"/>
<path d="" fill="#527447" transform="translate(0,0)"/>
<path d="" fill="#4F7349" transform="translate(0,0)"/>
<path d="" fill="#527449" transform="translate(0,0)"/>
<path d="" fill="#507046" transform="translate(0,0)"/>
<path d="" fill="#4C6C41" transform="translate(0,0)"/>
<path d="" fill="#55754D" transform="translate(0,0)"/>
<path d="" fill="#4D6E46" transform="translate(0,0)"/>
<path d="" fill="#4F7148" transform="translate(0,0)"/>
<path d="" fill="#4E6E43" transform="translate(0,0)"/>
<path d="" fill="#4D6E47" transform="translate(0,0)"/>
<path d="" fill="#4F6E44" transform="translate(0,0)"/>
<path d="" fill="#4E7146" transform="translate(0,0)"/>
<path d="" fill="#486A41" transform="translate(0,0)"/>
<path d="" fill="#4F7047" transform="translate(0,0)"/>
<path d="" fill="#4F7147" transform="translate(0,0)"/>
<path d="" fill="#4F6B44" transform="translate(0,0)"/>
<path d="" fill="#4E7047" transform="translate(0,0)"/>
<path d="" fill="#52784C" transform="translate(0,0)"/>
<path d="" fill="#4D7046" transform="translate(0,0)"/>
<path d="" fill="#4A683D" transform="translate(0,0)"/>
<path d="" fill="#507148" transform="translate(0,0)"/>
<path d="" fill="#53734D" transform="translate(0,0)"/>
<path d="" fill="#517446" transform="translate(0,0)"/>
<path d="" fill="#496A40" transform="translate(0,0)"/>
<path d="" fill="#507546" transform="translate(0,0)"/>
<path d="" fill="#4E6F43" transform="translate(0,0)"/>
<path d="" fill="#4C7043" transform="translate(0,0)"/>
<path d="" fill="#4E7044" transform="translate(0,0)"/>
<path d="" fill="#4E6F45" transform="translate(0,0)"/>
<path d="" fill="#4B6E43" transform="translate(0,0)"/>
<path d="" fill="#4C6F43" transform="translate(0,0)"/>
<path d="" fill="#4A7146" transform="translate(0,0)"/>
<path d="" fill="#4B6F45" transform="translate(0,0)"/>
<path d="" fill="#4C6F44" transform="translate(0,0)"/>
<path d="" fill="#4B6D46" transform="translate(0,0)"/>
<path d="" fill="#4A6E45" transform="translate(0,0)"/>
<path d="" fill="#4A6E44" transform="translate(0,0)"/>
<path d="" fill="#4F6F45" transform="translate(0,0)"/>
<path d="" fill="#4D6F45" transform="translate(0,0)"/>
<path d="" fill="#4C7247" transform="translate(0,0)"/>
<path d="" fill="#4E7148" transform="translate(0,0)"/>
<path d="" fill="#4F7248" transform="translate(0,0)"/>
<path d="" fill="#507349" transform="translate(0,0)"/>
<path d="" fill="#517349" transform="translate(0,0)"/>
<path d="" fill="#52774C" transform="translate(0,0)"/>
<path d="" fill="#4A6E43" transform="translate(0,0)"/>
<path d="" fill="#4D7247" transform="translate(0,0)"/>
<path d="" fill="#4A6F44" transform="translate(0,0)"/>
<path d="" fill="#51774C" transform="translate(0,0)"/>
<path d="" fill="#4F764B" transform="translate(0,0)"/>
<path d="" fill="#486C44" transform="translate(0,0)"/>
<path d="" fill="#4E7548" transform="translate(0,0)"/>
<path d="" fill="#436A3F" transform="translate(0,0)"/>
<path d="" fill="#507448" transform="translate(0,0)"/>
<path d="" fill="#4E7647" transform="translate(0,0)"/>
<path d="" fill="#4E7245" transform="translate(0,0)"/>
<path d="" fill="#4D7649" transform="translate(0,0)"/>
<path d="" fill="#4F7448" transform="translate(0,0)"/>
<path d="" fill="#4E7649" transform="translate(0,0)"/>
<path d="" fill="#476B3F" transform="translate(0,0)"/>
<path d="" fill="#4C7346" transform="translate(0,0)"/>
<path d="" fill="#4F7148" transform="translate(0,0)"/>
<path d="" fill="#4D7249" transform="translate(0,0)"/>
<path d="" fill="#507449" transform="translate(0,0)"/>
<path d="" fill="#4D7147" transform="translate(0,0)"/>
<path d="" fill="#4C6E45" transform="translate(0,0)"/>
<path d="" fill="#4F7549" transform="translate(0,0)"/>
<path d="" fill="#4D7147" transform="translate(0,0)"/>
<path d="" fill="#4B6E43" transform="translate(0,0)"/>
<path d="" fill="#4E7647" transform="translate(0,0)"/>
<path d="" fill="#4C7446" transform="translate(0,0)"/>
<path d="" fill="#4E7247" transform="translate(0,0)"/>
<path d="" fill="#4B7346" transform="translate(0,0)"/>
<path d="" fill="#4E7445" transform="translate(0,0)"/>
<path d="" fill="#4C7447" transform="translate(0,0)"/>
<path d="" fill="#4D7346" transform="translate(0,0)"/>
<path d="" fill="#4C7448" transform="translate(0,0)"/>
<path d="" fill="#4A7044" transform="translate(0,0)"/>
<path d="" fill="#4E7145" transform="translate(0,0)"/>
<path d="" fill="#4F7347" transform="translate(0,0)"/>
<path d="" fill="#507648" transform="translate(0,0)"/>
<path d="" fill="#4D7248" transform="translate(0,0)"/>
<path d="" fill="#486A40" transform="translate(0,0)"/>
<path d="" fill="#4A6F45" transform="translate(0,0)"/>
<path d="" fill="#486C41" transform="translate(0,0)"/>
<path d="" fill="#4D7149" transform="translate(0,0)"/>
<path d="" fill="#4E7245" transform="translate(0,0)"/>
<path d="" fill="#4C7446" transform="translate(0,0)"/>
<path d="" fill="#4C7346" transform="translate(0,0)"/>
<path d="" fill="#4F7446" transform="translate(0,0)"/>
<path d="" fill="#4F7347" transform="translate(0,0)"/>
<path d="" fill="#4B7345" transform="translate(0,0)"/>
<path d="" fill="#476D43" transform="translate(0,0)"/>
<path d="" fill="#4F7649" transform="translate(0,0)"/>
<path d="" fill="#4C7146" transform="translate(0,0)"/>
<path d="" fill="#507149" transform="translate(0,0)"/>
<path d="" fill="#507248" transform="translate(0,0)"/>
<path d="" fill="#4E7245" transform="translate(0,0)"/>
<path d="" fill="#4D7045" transform="translate(0,0)"/>
<path d="" fill="#4E7346" transform="translate(0,0)"/>
<path d="" fill="#4E7549" transform="translate(0,0)"/>
<path d="" fill="#4E754B" transform="translate(0,0)"/>
<path d="" fill="#52774B" transform="translate(0,0)"/>
<path d="" fill="#517449" transform="translate(0,0)"/>
<path d="" fill="#497144" transform="translate(0,0)"/>
<path d="" fill="#4F7347" transform="translate(0,0)"/>
<path d="" fill="#517448" transform="translate(0,0)"/>
<path d="" fill="#507549" transform="translate(0,0)"/>
<path d="" fill="#507449" transform="translate(0,0)"/>
<path d="" fill="#4F7446" transform="translate(0,0)"/>
<path d="" fill="#527A4C" transform="translate(0,0)"/>
</svg>
